# xmcd
# Copyright (C) 1995-1998 Ti Kan
#
# Track frame offsets:
#       150
#       15485
#       28391
#       42250
#       51748
#       67828
#       82110
#       103182
#       121712
#       143521
#       153391
#       167690
#
# Disc length: 2379 seconds
#
# Revision: 0
# Processed by: cddbd v1.5.2PL0 Copyright (c) Steve Scherf et al.
# Submitted via: CD-Import v1.0
#
DISCID=9c09490c
DTITLE=Semtazone - Alles Is Durven
DYEAR=09
DGENRE=
TTITLE0=Bagdad
TTITLE1=L'horloge
TTITLE2=Berlin
TTITLE3=Silence
TTITLE4=Londres
TTITLE5=Monterrey
TTITLE6=La Solitude
TTITLE7=Vos Mains
TTITLE8=Les Cigarettes
TTITLE9=Toi
TTITLE10=Démons Des Veines
TTITLE11=La Mort Au Bout Du Chemin
EXTD=
EXTT0=
EXTT1=
EXTT2=
EXTT3=
EXTT4=
EXTT5=
EXTT6=
EXTT7=
EXTT8=
EXTT9=
EXTT10=
EXTT11=
PLAYORDER=
